<?xml version="1.0" encoding="utf-8"?>
<!-- Generator: Adobe Illustrator 24.0.0, SVG Export Plug-In . SVG Version: 6.00 Build 0)  -->
<svg version="1.1" id="Layer_1" xmlns="http://www.w3.org/2000/svg" xmlns:xlink="http://www.w3.org/1999/xlink" x="0px" y="0px"
	 viewBox="0 0 244.4 187.2" style="enable-background:new 0 0 244.4 187.2;" xml:space="preserve">
<style type="text/css">
	.st0{fill:#FFFFFF;}
	.st1{fill:#F8BA18;}
</style>
<g>
	<g>
		<path d="M234.2,108.7l-84.1,71.5c-8.3,7.1-19.5,8.6-27.5,3.8L9,114.1c-11.8-7.2-11.2-25,1.3-35.6L94.3,7.1
			c8.3-7.1,19.5-8.6,27.5-3.8l113.7,69.8C247.2,80.4,246.6,98.1,234.2,108.7z"/>
		<path class="st0" d="M133,187.2c-3.8,0-7.5-0.9-10.6-2.9L8.7,114.5c-5.1-3.1-8.2-8.3-8.6-14.5c-0.6-7.9,3.1-16.1,9.8-21.9L94,6.7
			c8.5-7.2,20-8.8,28.1-3.8l113.7,69.8c5.1,3.1,8.2,8.3,8.6,14.5c0.6,7.9-3.1,16.1-9.8,21.9l-0.3-0.4l0.3,0.4l-84.1,71.5
			C145.3,184.9,139,187.2,133,187.2z M111.4,1c-5.7,0-11.8,2.2-16.8,6.4L10.6,78.9C4,84.5,0.5,92.3,1.1,99.9
			c0.5,5.9,3.4,10.8,8.2,13.7l113.7,69.8c7.7,4.7,18.7,3.2,26.9-3.7l84.1-71.5c6.5-5.6,10.1-13.4,9.5-21c-0.5-5.9-3.4-10.8-8.2-13.7
			L121.5,3.7C118.5,1.9,115,1,111.4,1z"/>
	</g>
	<g>
		<path class="st0" d="M89.6,86.5V74.7h36.9v11.9H89.6z M117.7,127.5c-6.3,0-11.1-1.6-14.6-4.8c-3.5-3.2-5.2-8-5.2-14.3V61.7h15.4
			v46.5c0,2.2,0.6,4,1.8,5.2c1.2,1.2,2.8,1.8,4.8,1.8c2.4,0,4.5-0.7,6.2-2l4.2,10.9c-1.6,1.1-3.5,2-5.7,2.5
			C122.3,127.2,120,127.5,117.7,127.5z"/>
		<path class="st1" d="M145.8,127.5c-2.6,0-4.9-0.9-6.8-2.7c-1.9-1.8-2.8-4.1-2.8-7c0-2.8,0.9-5.1,2.8-6.9c1.9-1.7,4.1-2.6,6.8-2.6
			c2.7,0,5,0.9,6.8,2.6c1.8,1.7,2.8,4,2.8,6.9c0,2.8-0.9,5.2-2.8,7C150.7,126.6,148.5,127.5,145.8,127.5z"/>
	</g>
</g>
</svg>
